<?xml version="1.0" standalone="no"?>
<!DOCTYPE svg PUBLIC "-//W3C//DTD SVG 20010904//EN"
 "http://www.w3.org/TR/2001/REC-SVG-20010904/DTD/svg10.dtd">
<svg version="1.0" xmlns="http://www.w3.org/2000/svg"
 width="700.000000pt" height="700.000000pt" viewBox="0 0 700.000000 700.000000"
 preserveAspectRatio="xMidYMid meet">
<metadata>
Created by potrace 1.14, written by Peter Selinger 2001-2017
</metadata>
<g transform="translate(0.000000,700.000000) scale(0.100000,-0.100000)"
fill="#000000" stroke="none">
<path d="M2940 6510 c-160 -45 -292 -234 -320 -456 -13 -103 -23 -134 -46
-134 -46 0 -684 -227 -870 -310 -348 -155 -712 -420 -860 -626 -53 -73 -144
-264 -126 -264 4 0 17 13 30 29 12 16 41 41 65 57 23 16 44 31 47 34 12 14
173 103 250 139 104 48 193 76 187 58 -2 -7 -60 -53 -130 -103 -230 -164 -348
-275 -531 -494 -50 -61 -134 -195 -155 -246 -26 -67 -17 -84 35 -65 46 17 161
86 272 163 130 91 123 78 -24 -46 -105 -89 -308 -300 -366 -381 -81 -115 -178
-321 -178 -380 0 -9 42 27 93 78 127 129 277 236 305 218 9 -5 -4 -34 -44 -97
-213 -334 -277 -490 -329 -804 -8 -45 -8 -223 -1 -274 12 -85 36 -72 92 49 21
46 44 86 50 89 7 3 16 -19 24 -57 21 -108 99 -305 173 -432 234 -407 611 -798
1037 -1077 107 -70 283 -170 375 -212 78 -37 659 -262 702 -272 16 -4 33 -9
38 -13 6 -3 15 -7 20 -8 6 -1 61 -18 123 -38 192 -60 377 -105 512 -126 36 -5
79 -12 95 -15 49 -9 295 -13 300 -4 3 4 -4 34 -16 66 -44 127 -101 370 -115
485 -3 30 -8 57 -10 61 -10 16 -19 172 -18 308 1 175 22 307 71 440 78 211
301 475 471 556 47 22 80 29 164 33 24 1 33 45 17 84 -23 58 -56 105 -151 215
-27 30 -48 59 -48 63 0 4 35 7 79 5 86 -4 237 29 516 114 76 23 144 43 150 45
5 1 17 5 25 8 17 7 120 37 270 77 134 37 231 35 370 -6 74 -21 115 -27 185
-27 109 0 140 5 285 38 135 31 340 146 452 252 74 71 111 130 137 218 31 106
33 183 4 255 -18 44 -4 94 35 136 104 107 150 242 108 321 -43 83 -183 179
-426 292 -144 67 -247 133 -393 251 -86 69 -142 124 -307 301 -191 204 -359
368 -441 431 -222 169 -523 320 -774 388 -142 39 -162 42 -300 55 -131 12
-269 54 -385 117 -138 76 -396 260 -505 361 -11 10 -48 32 -81 48 -64 32 -160
45 -214 29z"/>
</g>
</svg>
